<svg width="206" height="195" viewBox="0 0 206 195" fill="none" xmlns="http://www.w3.org/2000/svg">
<path d="M8.58337 8.33331H197.417V186.667H8.58337V8.33331Z" fill="#1F0040"/>
<path d="M0 0V195H206V0H0ZM8.58333 8.33333H197.417V186.667H8.58333V8.33333ZM58.195 110.417L51.4142 135.333C51.2425 136 50.985 136.25 50.1267 136.25H37.5092C36.6508 136.25 36.4792 136 36.6508 135L61.0275 52.25C61.4567 50.75 61.7142 49.5833 61.8858 45.4167C61.8858 44.8333 62.1433 44.5833 62.5725 44.5833H80.5975C81.1983 44.5833 81.4558 44.75 81.6275 45.4167L108.923 135.167C109.094 135.833 108.923 136.25 108.236 136.25H94.0733C93.3867 136.25 92.9575 136 92.7858 135.417L85.6617 110.417H58.195ZM82.3142 96.9167C79.9108 87.6667 74.0742 67.5 71.9283 57.75H71.7567C69.9542 67.5 65.2333 84 61.7142 96.9167C61.8 96.9167 82.3142 96.9167 82.3142 96.9167ZM128.321 105.417C128.493 116.667 133.986 124.25 147.033 124.25C152.097 124.25 156.474 123.583 161.023 121.667C161.624 121.417 162.053 121.5 162.053 122.25V132.667C162.053 133.5 161.796 133.917 161.195 134.333C156.646 136.5 150.981 137.5 143.943 137.5C121.283 137.5 112.785 121.25 112.785 103.083C112.785 83.4167 123.257 67.3333 141.711 67.3333C160.423 67.3333 166.946 82.5833 166.946 95C166.946 99 166.688 102.25 166.259 103.833C166.087 104.5 165.83 104.75 165.143 104.917C163.427 105.167 158.363 105.5 150.809 105.5L128.321 105.417ZM145.745 93.9167C150.123 93.9167 151.667 93.9167 152.097 93.75C152.097 93.1667 152.268 92.75 152.268 92.3333C152.268 87.8333 150.037 79.5 141.11 79.5C132.87 79.5 129.351 86.5 128.492 93.9167H145.745Z" fill="#D291FF"/>
</svg>
