<svg width="200" height="200" viewBox="0 0 200 200" fill="none" xmlns="http://www.w3.org/2000/svg">
<path d="M200 0H0V200H200V0Z" fill="#FF7C00"/>
<path d="M191.233 8.8219H8.8219V191.233H191.233V8.8219Z" fill="#261300"/>
<path d="M69.0959 113.863L61.9178 137.808C61.8082 138.63 61.4247 138.904 60.7124 138.904H48.6576C47.8356 138.904 47.6165 138.466 47.8356 137.534C54.2466 116.493 64.9863 81.3699 72.548 57.5891C72.8767 56.2192 73.2603 54.8493 73.4795 50.0274C73.4795 49.4795 73.8082 49.2055 74.1918 49.2055H90.5206C91.1233 49.2055 91.2329 49.3699 91.4521 49.9178C100.219 78.137 109.808 109.205 118.795 137.699C119.014 138.521 118.795 138.959 118.082 138.959H104.822C104.219 138.959 104 138.685 103.781 138.137L96.2192 113.918H69.0959V113.863ZM93.0411 100.384C90.685 91.1781 84.8767 72.6028 82.5206 62.9589H82.411C80.6576 72.0548 75.7809 87.5617 72.2192 100.384H93.0411Z" fill="#FF7C00"/>
<path d="M130.794 54.3562C130.794 49.2603 134.192 45.8082 138.685 45.8082C143.452 45.8082 146.356 49.2603 146.356 54.3562C146.356 59.5616 143.233 62.9041 138.575 62.9041C133.973 62.9041 130.794 59.6164 130.794 54.3562ZM131.616 73.0959C131.616 72.274 131.836 72 132.438 72H144.767C145.479 72 145.699 72.1644 145.699 73.0959V137.753C145.699 138.466 145.479 138.849 144.767 138.849H132.658C131.945 138.849 131.616 138.575 131.616 137.589V73.0959Z" fill="#FF7C00"/>
</svg>
