<svg width="200" height="200" viewBox="0 0 200 200" fill="none" xmlns="http://www.w3.org/2000/svg">
<path d="M200 0H0V200H200V0Z" fill="#00E4BB"/>
<path d="M191.233 8.8219H8.82202V191.233H191.233V8.8219Z" fill="#002620"/>
<path d="M56.274 113.151L49.0411 137.753C48.9315 138.63 48.548 138.904 47.8356 138.904H35.726C34.9041 138.904 34.685 138.466 34.9041 137.479C41.3151 115.836 52.1096 79.726 59.726 55.2329C60.0548 53.8082 60.4384 52.3836 60.6576 47.452C60.6576 46.9041 60.9863 46.6301 61.3699 46.6301H77.7534C78.3562 46.6301 78.4658 46.7945 78.685 47.3424C87.4521 76.3835 97.0959 108.329 106.082 137.644C106.301 138.521 106.082 138.904 105.37 138.904H92.0548C91.4521 138.904 91.2329 138.63 91.0137 138.027L83.4521 113.151H56.274ZM80.2192 99.2329C77.863 89.7534 72.0548 70.6301 69.6439 60.7123H69.5343C67.7808 70.0274 62.9041 86.0274 59.3425 99.2329H80.2192Z" fill="#00E4BB"/>
<path fill-rule="evenodd" clip-rule="evenodd" d="M162.904 125.151C162.904 126.082 163.014 128.986 163.288 133.699C163.288 134.247 163.233 134.521 162.685 134.63C155.397 137.37 147.343 140.274 137.151 140.274C124.658 140.274 112.658 135.452 112.658 116.219V72.274C112.658 71.5616 112.932 71.1781 113.644 71.1781H126.74C127.452 71.1781 127.726 71.6164 127.726 72.274V114.411C127.726 122.521 130.795 126.904 139.343 126.904C142.795 126.904 145.918 126.192 147.945 125.37V72.2192C147.945 71.5069 148.219 71.1233 148.932 71.1233H161.918C162.74 71.1233 162.904 71.5616 162.904 72.2192V125.151Z" fill="#00E4BB"/>
</svg>
