<svg width="200" height="200" viewBox="0 0 200 200" fill="none" xmlns="http://www.w3.org/2000/svg">
<path d="M99.9998 180.078C144.226 180.078 180.078 144.226 180.078 100C180.078 55.7742 144.226 19.922 99.9998 19.922C55.7738 19.922 19.9216 55.7742 19.9216 100C19.9216 144.226 55.7738 180.078 99.9998 180.078Z" fill="#5D83AC"/>
<path fill-rule="evenodd" clip-rule="evenodd" d="M100 200C44.7715 200 0 155.229 0 100C0 44.7715 44.7715 0 100 0C155.229 0 200 44.7715 200 100C200 155.229 155.229 200 100 200ZM100 19.9219C55.774 19.9219 19.9219 55.774 19.9219 100C19.9219 144.226 55.774 180.078 100 180.078C144.226 180.078 180.078 144.226 180.078 100C180.078 55.774 144.226 19.9219 100 19.9219Z" fill="#F0F0F0"/>
<path fill-rule="evenodd" clip-rule="evenodd" d="M161.258 129.687L115.539 63.5154C113.934 61.1826 111.984 59.2328 109.688 57.6638C107.391 56.0966 104.528 55.3123 101.102 55.3123C97.528 55.3123 94.5749 56.1513 92.2423 57.8279C89.9077 59.506 87.9766 61.4013 86.4454 63.5154L39.5235 129.687H66.3204L100.664 81.1248L113.789 100.484C115.028 102.234 116.322 104.112 117.672 106.117C119.02 108.123 120.205 109.781 121.227 111.094C119.477 110.948 117.416 110.875 115.047 110.875C112.676 110.875 110.399 110.875 108.211 110.875H89.836L76.1641 129.687H161.258Z" fill="#F0F0F0"/>
</svg>
