<svg width="249" height="205" viewBox="0 0 249 205" fill="none" xmlns="http://www.w3.org/2000/svg">
<path d="M151.522 46.1209H48.8149C30.3319 47.5329 33.2611 72.1726 46.8943 71.9753C59.5189 71.7735 80.7251 71.9753 95.7703 71.9753C74.1563 92.3746 25.8854 123.276 4.78008 143.373C-3.40246 151.148 -2.89379 173.77 20.8382 168.517C29.8276 163.566 70.4246 130.441 75.9804 124.789C78.8088 195.178 157.981 228.202 217.465 186.895C249.072 164.877 259.982 109.134 235.242 81.6662C215.75 59.8505 180.2 38.0392 137.683 2.59031C130.921 -2.96119 110.622 -0.137203 117.485 16.4252C117.485 16.4252 135.565 34.5092 151.522 46.1209ZM161.923 70.8658C191.211 70.8658 215.246 92.4754 215.246 118.738C215.246 145.193 191.211 166.605 161.923 166.605C132.434 166.605 108.601 145.193 108.601 118.738C108.601 92.4754 132.434 70.8658 161.923 70.8658Z" fill="#DB933D"/>
<path d="M163.791 86.3139C182.007 86.3139 196.863 100.307 196.863 117.465C196.863 134.624 182.007 148.617 163.791 148.617C145.576 148.617 130.719 134.624 130.719 117.465C130.719 100.307 145.576 86.3139 163.791 86.3139Z" fill="#37699F"/>
</svg>
