<svg width="200" height="200" viewBox="0 0 200 200" fill="none" xmlns="http://www.w3.org/2000/svg">
<path d="M192.656 101.094C192.656 152.891 150.703 194.844 98.9062 194.844C47.1094 194.844 5.15625 152.891 5.15625 101.094C5.15625 49.2969 47.1094 7.34375 98.9062 7.34375C150.703 7.34375 192.656 49.2969 192.656 101.094Z" fill="url(#paint0_linear_12_64)"/>
<g opacity="0.6436">
<path d="M102.344 133.359C102.344 147.891 90.5469 159.687 76.0156 159.687C61.4844 159.687 49.6875 147.891 49.6875 133.359C49.6875 118.828 61.4844 107.031 76.0156 107.031C90.5469 107.031 102.344 118.828 102.344 133.359Z" fill="#0021F4"/>
</g>
<path d="M191.953 81.9531C191.953 123.203 158.516 156.562 117.344 156.562C76.0938 156.562 42.7344 123.125 42.7344 81.9531C42.7344 40.7812 76.0938 7.34375 117.266 7.34375C158.516 7.34375 191.953 40.7031 191.953 81.9531Z" fill="#020518"/>
<path d="M139.531 18.3594C139.531 18.3594 139.453 25.4688 132.734 32.1875C128.359 36.5625 122.344 39.7656 116.094 43.0469C110.938 45.7031 107.578 47.2656 98.8282 51.1719C92.1875 54.0625 82.7344 60.0781 77.3438 66.1719C71.9532 72.2656 69.375 78.2813 67.8125 85.7812C66.25 93.2812 67.7344 100.938 69.375 105.938C71.0157 110.938 74.0625 116.719 79.6094 121.953C85.1563 127.188 93.5157 131.953 102.813 132.969C112.188 133.984 120.625 132.109 127.969 127.734C135.313 123.359 138.281 118.672 141.406 114.531C144.531 110.391 148.438 102.5 151.172 95.3125C153.672 88.75 157.734 75.9375 164.141 68.5156C170.859 60.7031 177.813 59.0625 177.813 59.0625C177.813 59.0625 174.609 46.25 163.125 34.2187C151.484 22.1094 139.531 18.3594 139.531 18.3594Z" fill="url(#paint1_linear_12_64)"/>
<path d="M137.969 17.1094C137.969 17.1094 139.141 21.1719 135.234 23.9844C131.406 26.7188 122.109 29.8438 108.047 32.5781C93.9062 35.3906 88.2812 35.8594 72.1875 41.3281C56.0937 46.7969 42.2656 57.0313 32.7343 67.8906C23.2031 78.75 18.5937 89.375 15.7812 102.734C12.9687 116.016 15.625 129.609 18.5156 138.516C21.4062 147.422 26.875 157.656 36.6406 166.953C46.4062 176.25 61.25 184.688 77.8125 186.406C94.375 188.203 109.453 184.844 122.422 177.109C135.391 169.297 140.781 161.016 146.25 153.75C151.797 146.484 159.141 130.078 162.5 118.125C165.859 106.094 166.953 87.8906 171.25 72.1875C175.547 56.4844 179.844 57.7344 182.109 58.125" stroke="url(#paint2_linear_12_64)" stroke-width="5"/>
<path d="M190.469 57.3438C188.281 56.0938 185.781 55.4688 183.047 55.9375C172.969 57.6562 170.391 72.9688 165.156 107.109C163.828 115.781 158.984 136.094 146.641 153.594C141.719 160.625 136.094 166.953 135.547 167.578C122.656 179.766 105.234 187.266 86.0938 187.266C46.4062 187.266 14.2188 155.078 14.2188 115.391C14.2188 97.8125 20.5469 81.6406 31.0938 69.1406C31.0938 69.1406 37.1875 62.5781 44.1406 56.7188C57.5781 45.3125 79.6875 37.8125 88.2812 36.25C122.109 29.9219 139.609 26.25 140.781 16.0156C141.172 12.8125 139.922 9.92188 138.047 7.42188C126.328 2.65625 113.438 0 100 0C62.8125 0 30.3906 20.3125 13.125 50.4688C4.76562 65.0781 0 82.0313 0 100.078C0 155.234 44.7656 200 99.9219 200C120 200 138.75 194.062 154.375 183.828C181.875 166.016 200 135.156 200 100C200 84.7656 196.562 70.2344 190.469 57.3438Z" fill="url(#paint3_linear_12_64)"/>
<defs>
<linearGradient id="paint0_linear_12_64" x1="86.007" y1="53.5123" x2="121.777" y2="185.064" gradientUnits="userSpaceOnUse">
<stop stop-color="#1A1C3F"/>
<stop offset="1" stop-color="#CCCCCC"/>
</linearGradient>
<linearGradient id="paint1_linear_12_64" x1="146.04" y1="22.6408" x2="91.6679" y2="126.537" gradientUnits="userSpaceOnUse">
<stop stop-color="white"/>
<stop offset="0.1934" stop-color="#7482FF"/>
<stop offset="0.5239" stop-color="#2C38A0"/>
<stop offset="1" stop-color="#6474DB"/>
</linearGradient>
<linearGradient id="paint2_linear_12_64" x1="17.911" y1="71.091" x2="144.131" y2="166.578" gradientUnits="userSpaceOnUse">
<stop stop-color="#B3B7D1"/>
<stop offset="1" stop-color="white"/>
</linearGradient>
<linearGradient id="paint3_linear_12_64" x1="28.5375" y1="30.4545" x2="166.598" y2="172.314" gradientUnits="userSpaceOnUse">
<stop stop-color="#F7F7F7"/>
<stop offset="0.5244" stop-color="#F0F4FF"/>
<stop offset="1" stop-color="#BEBEBE"/>
</linearGradient>
</defs>
</svg>
