<svg width="200" height="162" viewBox="0 0 200 162" fill="none" xmlns="http://www.w3.org/2000/svg">
<path d="M200 33.5985V1.55563L162.567 21.8445V20.6466C162.678 17.806 162.178 14.9746 161.1 12.3441C160.022 9.71371 158.391 7.34567 156.318 5.40042C154.245 3.45517 151.778 1.97814 149.085 1.06937C146.391 0.160609 143.533 -0.158669 140.706 0.133165H21.8175C18.9854 -0.199177 16.1148 0.0923784 13.4073 0.987366C10.6999 1.88235 8.22108 3.35908 6.14498 5.31389C4.06889 7.26871 2.4458 9.65422 1.38965 12.303C0.3335 14.9518 -0.130113 17.7996 0.0313518 20.6466V52.9141L52.438 80.8393L0.0313518 109.064V141.332C-0.109262 144.164 0.370565 146.992 1.43727 149.619C2.50398 152.247 4.1318 154.609 6.20688 156.542C8.28196 158.474 10.7542 159.93 13.4506 160.807C16.1471 161.684 19.0026 161.962 21.8175 161.62H140.706C143.511 161.91 146.345 161.596 149.019 160.7C151.692 159.804 154.143 158.346 156.207 156.424C158.271 154.502 159.899 152.161 160.983 149.558C162.067 146.955 162.582 144.15 162.492 141.332V139.684L199.925 160.123V127.406L112.78 80.8393L200 33.5985ZM82.3846 96.7859L146.845 131.449H17.8496L82.3846 96.7859ZM146.545 30.0798L82.3846 64.743L17.8496 30.0798H146.545Z" fill="white"/>
</svg>
