<svg width="184" height="208" viewBox="0 0 184 208" fill="none" xmlns="http://www.w3.org/2000/svg">
<path d="M91.59 208L16.6912 187.207L0 0H183.404L166.696 187.179L91.59 208Z" fill="#264DE4"/>
<path d="M152.391 175.26L166.669 15.3066H91.7021V192.085L152.391 175.26Z" fill="#2965F1"/>
<path d="M38.264 84.7394L40.3215 107.7H91.7022V84.7394H38.264ZM34.1287 38.2675L36.2158 61.2277H91.7022V38.2675H34.1287ZM91.7022 144.37L91.6015 144.396L66.0309 137.492L64.3961 119.18H41.3474L44.5639 155.231L91.5965 168.287L91.7022 168.258V144.37Z" fill="#EBEBEB"/>
<path d="M144.994 84.7394L149.138 38.2675H91.6231V61.2277H123.976L121.887 84.7394H91.6231V107.7H119.896L117.23 137.477L91.6224 144.389V168.276L138.692 155.231L139.037 151.352L144.434 90.9048L144.994 84.7394Z" fill="white"/>
</svg>
