<svg width="161" height="205" viewBox="0 0 161 205" fill="none" xmlns="http://www.w3.org/2000/svg">
<path d="M72.3159 0H105.882V153.844C88.6888 157.097 76.0317 158.376 62.337 158.376C21.3406 158.333 0 140.018 0 104.842C0 70.9506 22.6365 48.9548 57.7146 48.9548C63.158 48.9548 67.3047 49.3833 72.3159 50.6666V0ZM73.4921 78.3911C69.5608 77.1072 66.3213 76.6794 62.1739 76.6794C45.1968 76.6794 35.3906 87.035 35.3906 105.183C35.3906 122.853 44.7652 132.609 61.9584 132.609C65.673 132.609 68.6971 132.4 73.4921 131.758V78.3911Z" fill="#2BA977"/>
<path d="M160.772 53.0852V130.113C160.772 156.64 158.785 169.396 152.953 180.395C147.51 190.968 140.339 197.636 125.521 205L94.3746 190.322C109.192 183.436 116.363 177.352 120.942 168.066C125.737 158.57 127.249 147.572 127.249 118.644V53.0859L160.772 53.0852ZM123.866 0H157.432V34.106H123.866V0Z" fill="#2BA977"/>
</svg>
