<svg width="200" height="187" viewBox="0 0 200 187" fill="none" xmlns="http://www.w3.org/2000/svg">
<path d="M125.581 88.3721L46.5116 74.4186V177.521C46.5116 182.229 50.3286 186.046 55.0372 186.046H191.474C196.183 186.046 200 182.229 200 177.521V139.535L125.581 88.3721Z" fill="#185C37"/>
<path d="M125.581 0H55.0372C50.3286 0 46.5116 3.81701 46.5116 8.52556V46.5116L125.581 93.0233L167.442 106.977L200 93.0233V46.5116L125.581 0Z" fill="#21A366"/>
<path d="M46.5116 46.5116H125.581V93.0232H46.5116V46.5116Z" fill="#107C41"/>
<path opacity="0.1" d="M103.102 37.2094H46.5116V153.488H103.102C107.804 153.473 111.613 149.665 111.628 144.963V45.7349C111.613 41.0327 107.804 37.2246 103.102 37.2094Z" fill="black"/>
<path opacity="0.2" d="M98.4511 41.8605H46.5116V158.14H98.4511C103.153 158.124 106.961 154.316 106.977 149.614V50.386C106.961 45.6839 103.153 41.8758 98.4511 41.8605Z" fill="black"/>
<path opacity="0.2" d="M98.4511 41.8605H46.5116V148.837H98.4511C103.153 148.822 106.961 145.014 106.977 140.312V50.386C106.961 45.6839 103.153 41.8758 98.4511 41.8605Z" fill="black"/>
<path opacity="0.2" d="M93.8 41.8605H46.5116V148.837H93.8C98.5022 148.822 102.31 145.014 102.326 140.312V50.386C102.31 45.6839 98.5022 41.8758 93.8 41.8605Z" fill="black"/>
<path d="M8.52556 41.8605H93.7999C98.5085 41.8605 102.325 45.6775 102.325 50.386V135.66C102.325 140.369 98.5085 144.186 93.7999 144.186H8.52556C3.81701 144.186 0 140.369 0 135.66V50.386C0 45.6775 3.81701 41.8605 8.52556 41.8605Z" fill="url(#paint0_linear_13_56)"/>
<path d="M26.4047 120.735L44.3395 92.9443L27.907 65.307H41.1256L50.093 82.9814C50.921 84.6605 51.4884 85.907 51.7954 86.7302H51.9116C52.5008 85.3907 53.1209 84.0899 53.7721 82.8279L63.3581 65.3164H75.493L58.6418 92.7908L75.921 120.735H63.0094L52.6512 101.335C52.1633 100.51 51.7493 99.6426 51.414 98.7443H51.2606C50.9571 99.6243 50.5546 100.467 50.0605 101.256L39.3954 120.735H26.4047Z" fill="white"/>
<path d="M191.474 0H125.581V46.5116H200V8.52556C200 3.81701 196.183 0 191.474 0Z" fill="#33C481"/>
<path d="M125.581 93.0232H200V139.535H125.581V93.0232Z" fill="#107C41"/>
<defs>
<linearGradient id="paint0_linear_13_56" x1="17.776" y1="35.1988" x2="84.5496" y2="150.848" gradientUnits="userSpaceOnUse">
<stop stop-color="#18884F"/>
<stop offset="0.5" stop-color="#117E43"/>
<stop offset="1" stop-color="#0B6631"/>
</linearGradient>
</defs>
</svg>
