<svg width="137" height="205" viewBox="0 0 137 205" fill="none" xmlns="http://www.w3.org/2000/svg">
<path d="M34.1667 205C53.0267 205 68.3333 189.693 68.3333 170.833V136.667H34.1667C15.3067 136.667 0 151.973 0 170.833C0 189.693 15.3067 205 34.1667 205Z" fill="#0ACF83"/>
<path d="M0 102.5C0 83.64 15.3067 68.3333 34.1667 68.3333H68.3333V136.667H34.1667C15.3067 136.667 0 121.36 0 102.5Z" fill="#A259FF"/>
<path d="M0 34.1667C0 15.3067 15.3067 0 34.1667 0H68.3333V68.3333H34.1667C15.3067 68.3333 0 53.0267 0 34.1667Z" fill="#F24E1E"/>
<path d="M68.3334 0H102.5C121.36 0 136.667 15.3067 136.667 34.1667C136.667 53.0267 121.36 68.3333 102.5 68.3333H68.3334V0Z" fill="#FF7262"/>
<path d="M136.667 102.5C136.667 121.36 121.36 136.667 102.5 136.667C83.64 136.667 68.3334 121.36 68.3334 102.5C68.3334 83.64 83.64 68.3333 102.5 68.3333C121.36 68.3333 136.667 83.64 136.667 102.5Z" fill="#1ABCFE"/>
</svg>
