<svg width="184" height="208" viewBox="0 0 184 208" fill="none" xmlns="http://www.w3.org/2000/svg">
<path d="M183.404 0L166.696 187.179L91.59 208L16.6912 187.207L0 0H183.404Z" fill="#E44D26"/>
<path d="M91.7021 192.085L152.391 175.26L166.669 15.3066H91.7021V192.085Z" fill="#F16529"/>
<path d="M59.2212 61.2277H91.7021V38.2675H34.1287L34.6779 44.4272L40.3215 107.7H91.7021V84.7394H61.3197L59.2212 61.2277ZM64.396 119.18H41.3474L44.5638 155.231L91.5964 168.287L91.7021 168.258V144.37L91.6015 144.396L66.0308 137.492L64.396 119.18Z" fill="#EBEBEB"/>
<path d="M91.6231 107.7H119.896L117.23 137.477L91.6224 144.389V168.276L138.692 155.231L139.037 151.352L144.434 90.9048L144.994 84.7394H91.6231V107.7ZM91.6231 61.1717V61.2277H147.083L147.543 56.0673L148.59 44.4272L149.138 38.2675H91.6231V61.1717Z" fill="white"/>
</svg>
