<svg width="200" height="195" viewBox="0 0 200 195" fill="none" xmlns="http://www.w3.org/2000/svg">
<path d="M8.33325 8.33325H191.667V186.667H8.33325V8.33325Z" fill="url(#paint0_radial_12_12)"/>
<path d="M8.33322 8.33322H191.667V186.667H8.33322V8.33322ZM0 195H200V0H0V195ZM126.5 80.9999C125.25 80.4166 123.583 80.1666 121.583 80.1666C110.833 80.1666 103.333 88.4169 103.333 102.167C103.333 117.833 111 124.166 120.584 124.166C122.667 124.166 124.833 123.916 126.5 123.167V80.9999ZM122.083 67.4167C123.833 67.4167 124.833 67.4167 126.5 67.5833V45.4166C126.5 44.8334 126.916 44.5834 127.333 44.5834H140.833C141.499 44.5834 141.666 44.8334 141.666 45.25V123.167C141.666 125.5 141.666 128.417 142.083 131.583C142.083 132.167 141.916 132.25 141.333 132.584C134.166 136 126.583 137.5 119.5 137.5C101.083 137.5 87.9163 126.084 87.9163 102.834C87.8333 82.9166 101 67.4167 122.083 67.4167ZM73.1669 135.167C73.1669 136 73.0003 136.25 72.0834 136.25H59.2501C58.4169 136.25 58.1666 135.834 58.1666 135.167V45.6666C58.1666 44.8334 58.5832 44.583 59.2501 44.583H72.1667C72.8333 44.583 73.1669 44.833 73.1669 45.5833V135.167Z" fill="#FF408C"/>
<defs>
<radialGradient id="paint0_radial_12_12" cx="0" cy="0" r="1" gradientUnits="userSpaceOnUse" gradientTransform="translate(68.7144 48.298) scale(139.333 134.9)">
<stop stop-color="#4B2B36" stop-opacity="0.98"/>
<stop offset="1" stop-color="#250012"/>
</radialGradient>
</defs>
</svg>
