<svg width="200" height="200" viewBox="0 0 200 200" fill="none" xmlns="http://www.w3.org/2000/svg">
<path d="M101.115 194.793C153.689 194.793 196.31 152.172 196.31 99.5978C196.31 47.0232 153.689 4.40308 101.115 4.40308C48.5403 4.40308 5.92017 47.0232 5.92017 99.5978C5.92017 152.172 48.5403 194.793 101.115 194.793Z" fill="url(#paint0_linear_13_58)"/>
<path d="M100.007 2.49063e-07C80.2287 -0.00139535 60.894 5.86232 44.4482 16.8496C28.0023 27.8369 15.184 43.4543 7.61412 61.7267C0.0442794 79.9992 -1.93707 100.106 1.92065 119.505C5.77838 138.903 15.3019 156.722 29.2869 170.708C43.2718 184.694 61.0901 194.219 80.4884 198.078C99.8867 201.937 119.994 199.957 138.267 192.389C156.54 184.82 172.158 172.003 183.146 155.558C194.135 139.113 200 119.778 200 100C200 73.4796 189.465 48.0452 170.713 29.2918C151.961 10.5384 126.528 0.00187157 100.007 2.49063e-07ZM147.326 21.6836C160.405 29.3273 171.272 40.2403 178.86 53.3517C184.478 62.735 188.32 73.0731 190.192 83.8484C190.475 85.0464 190.448 86.2967 190.115 87.4816C189.782 88.6665 189.152 89.7473 188.287 90.6223C177.832 102.501 165.611 112.699 152.053 120.858C151.778 121.025 151.458 121.106 151.136 121.09C150.814 121.075 150.504 120.963 150.246 120.769C149.988 120.576 149.793 120.309 149.688 120.005C149.583 119.7 149.571 119.37 149.654 119.059C158.071 87.5414 156.438 54.1827 144.983 23.6382C144.865 23.3244 144.848 22.9817 144.933 22.6576C145.019 22.3335 145.203 22.044 145.461 21.8293C145.718 21.6146 146.036 21.4852 146.37 21.4591C146.704 21.433 147.038 21.5114 147.326 21.6836ZM56.3012 20.2724C69.4591 12.766 84.3435 8.81201 99.492 8.79904C110.428 8.6217 121.302 10.4636 131.569 14.2323C132.753 14.581 133.828 15.2262 134.692 16.1066C135.556 16.9871 136.182 18.0736 136.509 19.2633C141.572 34.2567 144.295 49.9408 144.581 65.7635C144.588 66.0862 144.499 66.4037 144.324 66.6752C144.149 66.9466 143.897 67.1594 143.6 67.2862C143.303 67.413 142.975 67.4479 142.658 67.3866C142.341 67.3252 142.05 67.1703 141.822 66.9418C118.734 43.8977 89.0294 28.6336 56.8516 23.2783C56.5074 23.2389 56.185 23.0899 55.9319 22.8533C55.6788 22.6167 55.5084 22.305 55.446 21.9642C55.3835 21.6235 55.4322 21.2716 55.585 20.9607C55.7377 20.6497 55.9863 20.396 56.2942 20.2371L56.3012 20.2724ZM9.52586 98.3488C9.60553 83.201 13.6226 68.3341 21.1827 55.2074C26.4988 45.6491 33.5313 37.1527 41.9278 30.1439C42.8238 29.3008 43.9194 28.6992 45.1117 28.3955C46.304 28.0919 47.5539 28.0962 48.744 28.4081C64.2581 31.5114 79.2018 36.9853 93.0497 44.6373C93.3326 44.7925 93.5625 45.0288 93.7099 45.3159C93.8573 45.6029 93.9154 45.9275 93.8767 46.2478C93.838 46.5682 93.7042 46.8696 93.4927 47.1132C93.2812 47.3569 93.0015 47.5317 92.6898 47.615C61.1863 56.0873 33.1139 74.1839 12.3907 99.379C12.1791 99.6368 11.8929 99.8228 11.5714 99.9115C11.2498 100 10.9088 99.9872 10.5949 99.8743C10.2811 99.7615 10.0099 99.5543 9.81846 99.2811C9.62706 99.008 9.52484 98.6824 9.52586 98.3488ZM53.768 177.907C40.689 170.263 29.8222 159.35 22.234 146.239C16.6194 136.848 12.785 126.503 10.923 115.721C10.6402 114.524 10.6668 113.275 11.0001 112.091C11.3334 110.907 11.9625 109.828 12.8282 108.954C23.2789 97.072 35.5005 86.8734 49.0616 78.7186C49.3373 78.5513 49.6568 78.4703 49.979 78.4861C50.3012 78.5019 50.6113 78.6138 50.8693 78.8074C51.1273 79.0009 51.3215 79.2672 51.4269 79.5721C51.5323 79.8769 51.5441 80.2063 51.4607 80.5179C43.0478 112.034 44.6833 145.39 56.1389 175.931C56.2711 176.25 56.298 176.602 56.2156 176.937C56.1332 177.272 55.9458 177.572 55.681 177.792C55.4161 178.013 55.0876 178.143 54.7434 178.164C54.3992 178.185 54.0574 178.095 53.768 177.907ZM144.793 179.354C131.634 186.859 116.75 190.815 101.602 190.834C90.666 191.005 79.7923 189.161 69.5245 185.394C68.34 185.047 67.2641 184.402 66.3995 183.521C65.5348 182.641 64.9102 181.553 64.5851 180.363C59.548 165.365 56.8515 149.681 56.5905 133.863C56.5832 133.54 56.6727 133.222 56.8475 132.951C57.0223 132.679 57.2744 132.467 57.5713 132.34C57.8682 132.213 58.1962 132.178 58.5132 132.239C58.8301 132.301 59.1214 132.456 59.3494 132.684C82.4319 155.724 112.128 170.988 144.299 176.348C144.627 176.407 144.93 176.566 145.164 176.804C145.399 177.042 145.553 177.347 145.608 177.676C145.662 178.006 145.613 178.344 145.467 178.644C145.321 178.945 145.085 179.193 144.793 179.354ZM159.159 169.475C158.264 170.32 157.168 170.923 155.976 171.226C154.783 171.53 153.533 171.525 152.343 171.211C136.831 168.109 121.889 162.635 108.044 154.982C107.761 154.827 107.531 154.591 107.383 154.305C107.235 154.018 107.176 153.694 107.214 153.374C107.252 153.053 107.385 152.752 107.596 152.508C107.807 152.264 108.086 152.088 108.397 152.004C139.916 143.526 168 125.413 188.724 100.198C188.937 99.9383 189.225 99.7516 189.549 99.6635C189.872 99.5753 190.215 99.5901 190.53 99.7056C190.845 99.8212 191.116 100.032 191.306 100.308C191.496 100.585 191.595 100.914 191.589 101.249C191.509 116.399 187.492 131.268 179.932 144.397C174.613 153.95 167.581 162.441 159.187 169.447L159.159 169.475Z" fill="url(#paint1_radial_13_58)"/>
<path d="M112.165 59.0107C111.302 58.3552 110.304 57.9014 109.243 57.6828C108.181 57.4642 107.085 57.4864 106.033 57.7476C93.9441 60.1886 82.1948 64.0837 71.0417 69.348C70.0432 69.7685 69.1512 70.4068 68.431 71.2162C67.7107 72.0256 67.1803 72.9856 66.8786 74.0262C62.9387 85.7154 60.4319 97.8394 59.4131 110.133C59.2758 111.208 59.3814 112.301 59.7221 113.33C60.0628 114.36 60.6299 115.3 61.3818 116.081C69.532 125.328 78.7723 133.555 88.9008 140.58C89.7635 141.235 90.7621 141.689 91.8233 141.908C92.8845 142.126 93.9812 142.104 95.0326 141.843C107.123 139.405 118.872 135.51 130.024 130.243C131.024 129.83 131.919 129.199 132.643 128.396C133.367 127.593 133.902 126.637 134.208 125.6C138.141 113.91 140.641 101.786 141.653 89.4933C141.79 88.4188 141.684 87.3272 141.344 86.2989C141.003 85.2707 140.436 84.332 139.684 83.552C131.538 74.2881 122.297 66.0473 112.165 59.0107Z" fill="url(#paint2_linear_13_58)"/>
<defs>
<linearGradient id="paint0_linear_13_58" x1="101.115" y1="194.793" x2="101.115" y2="4.40308" gradientUnits="userSpaceOnUse">
<stop stop-color="#0044FF"/>
<stop offset="1" stop-color="#33CCFF"/>
</linearGradient>
<radialGradient id="paint1_radial_13_58" cx="0" cy="0" r="1" gradientUnits="userSpaceOnUse" gradientTransform="translate(100.007 100) scale(100)">
<stop offset="0.95" stop-color="#F2F2F2"/>
<stop offset="1" stop-color="#CCCCCC"/>
</radialGradient>
<linearGradient id="paint2_linear_13_58" x1="100.558" y1="142.048" x2="100.558" y2="57.543" gradientUnits="userSpaceOnUse">
<stop/>
<stop offset="1" stop-color="#333333"/>
</linearGradient>
</defs>
</svg>
