<svg width="200" height="220" viewBox="0 0 200 220" fill="none" xmlns="http://www.w3.org/2000/svg">
<path fill-rule="evenodd" clip-rule="evenodd" d="M0.322645 66.1396C0.555996 63.3798 1.20224 60.726 2.21309 58.2465C4.4172 52.8993 8.37553 48.3204 13.6107 45.3398L86.7589 3.62839C90.8927 1.27053 95.5183 0.0839844 100.128 0.0839844C104.754 0.0839844 109.364 1.27053 113.498 3.62839L186.63 45.3398C194.898 50.0555 200 58.7719 200 68.2036V151.611C200 152.697 199.933 153.773 199.8 154.835C199.315 158.55 198.077 162.048 196.208 165.16C193.908 168.957 190.642 172.187 186.63 174.475L130.83 206.294L113.469 216.156L112.748 216.515C109.893 218.063 106.851 219.054 103.757 219.488C102.619 219.642 101.474 219.723 100.328 219.731H99.9133C95.3796 219.685 90.8312 218.514 86.7589 216.187L57.7035 199.618L13.5872 174.216L13.2266 173.857C5.29372 169.197 0.245544 160.594 0.245544 151.632V68.1093V67.7255C0.255261 67.1943 0.281043 66.6655 0.322645 66.1396ZM29.4529 142.67V120.804C29.4529 118.653 30.5347 117.936 32.3376 119.37L64.0693 137.652C65.872 138.728 67.3144 141.237 67.3144 143.029V164.896C67.3144 167.047 66.2324 167.763 64.4296 166.688L32.6982 148.047C30.8953 146.972 29.4529 144.463 29.4529 142.67ZM167.918 119.012C169.72 117.936 171.163 119.012 171.163 120.804H170.802V142.312C170.802 144.463 169.36 146.614 167.557 147.689L135.826 166.329C134.383 167.405 132.941 166.329 132.941 164.537V142.67C132.941 140.52 134.383 138.369 136.186 137.293L167.918 119.012ZM168.639 71.3354C170.081 70.2602 171.524 71.3354 171.524 73.1279V101.447C171.524 103.597 170.081 105.748 168.278 106.824L103.734 144.463C101.93 145.538 99.4065 145.538 97.6037 144.463L32.6982 106.824C30.8953 105.748 29.4529 103.239 29.4529 101.447V73.1279C29.4529 70.977 30.8953 70.2602 32.6982 71.3354L97.6037 108.975C99.4065 110.05 101.93 110.05 103.734 108.975L168.639 71.3354Z" fill="url(#paint0_linear_15_48)"/>
<path fill-rule="evenodd" clip-rule="evenodd" d="M87.8898 2.80005C87.4318 3.04418 86.9816 3.30556 86.5402 3.58467L55.8168 21.038L13.3643 45.2407C11.0243 46.5753 8.938 48.2305 7.14912 50.1317C2.93947 54.6615 0.363772 60.5546 0.0189945 66.9805C0.0103518 67.1812 0.00400394 67.3823 0 67.5835V68.1089V151.631C0 160.593 5.04818 169.197 12.9811 173.857L13.3416 174.215L39.9949 189.562L57.6987 199.658L84.6681 215.038C72.1914 199.99 63.8335 182.484 59.8833 164.161L32.4527 148.047C30.6497 146.972 29.2074 144.462 29.2074 142.67V120.804C29.2074 118.653 30.2891 117.936 32.0921 119.37L57.3896 133.944C57.5829 129.949 57.9843 125.957 58.5961 121.984L32.4527 106.824C30.6497 105.748 29.2074 103.239 29.2074 101.446V73.1275C29.2074 70.9766 30.6497 70.2598 32.4527 71.335L67.6538 91.7487C91.7785 39.1194 146.895 26.2215 151.331 25.252L143.183 20.6038L113.223 3.58467C110.869 2.30807 108.388 1.28404 105.855 0.6625C103.892 0.220419 101.888 0 99.8821 0C95.7776 0 91.6608 0.940505 87.8898 2.80005Z" fill="url(#paint1_linear_15_48)"/>
<defs>
<linearGradient id="paint0_linear_15_48" x1="100.282" y1="221.286" x2="100.282" y2="1.66923" gradientUnits="userSpaceOnUse">
<stop stop-color="#F0B118"/>
<stop offset="1" stop-color="#E62B19"/>
</linearGradient>
<linearGradient id="paint1_linear_15_48" x1="75.0196" y1="-1.49565" x2="75.0196" y2="213.542" gradientUnits="userSpaceOnUse">
<stop stop-color="#F0B118"/>
<stop offset="1" stop-color="#EF6A14"/>
</linearGradient>
</defs>
</svg>
