<svg width="200" height="228" viewBox="0 0 200 228" fill="none" xmlns="http://www.w3.org/2000/svg">
<mask id="mask0_15_90" style="mask-type:luminance" maskUnits="userSpaceOnUse" x="0" y="0" width="200" height="228">
<path d="M94.6175 1.44013L5.39205 52.9401C2.05007 54.8674 0 58.4254 0 62.2714V165.343C0 169.192 2.05007 172.747 5.39205 174.675L94.6238 226.215C97.9594 228.136 102.072 228.136 105.404 226.215L194.621 174.675C197.946 172.747 200 169.189 200 165.343V62.2714C200 58.4254 197.946 54.8674 194.599 52.9401L105.395 1.44013C103.722 0.480738 101.858 0 99.9947 0C98.131 0 96.2673 0.480738 94.5942 1.44013" fill="white"/>
</mask>
<g mask="url(#mask0_15_90)">
<path d="M290.166 44.1955L38.7441 -79.0427L-90.1699 183.94L161.245 307.185L290.166 44.1955Z" fill="url(#paint0_linear_15_90)"/>
</g>
<mask id="mask1_15_90" style="mask-type:luminance" maskUnits="userSpaceOnUse" x="2" y="0" width="196" height="228">
<path d="M2.21082 171.887C3.06431 172.995 4.13171 173.954 5.3876 174.675L81.927 218.885L94.6765 226.213C96.5826 227.314 98.7556 227.78 100.89 227.621C101.602 227.564 102.314 227.43 103.008 227.233L197.113 54.9244C196.393 54.1408 195.55 53.4843 194.606 52.9336L136.182 19.1961L105.3 1.42727C104.423 0.918986 103.472 0.558953 102.504 0.30481L2.21082 171.887Z" fill="white"/>
</mask>
<g mask="url(#mask1_15_90)">
<path d="M-106.495 80.6457L71.0349 320.923L305.821 147.458L128.281 -92.8132L-106.495 80.6457Z" fill="url(#paint1_linear_15_90)"/>
</g>
<mask id="mask2_15_90" style="mask-type:luminance" maskUnits="userSpaceOnUse" x="5" y="0" width="195" height="228">
<path d="M98.9293 0.0592763C97.432 0.207526 95.9685 0.67344 94.6195 1.44011L5.64819 52.7918L101.587 227.536C102.921 227.346 104.235 226.901 105.421 226.215L194.646 174.675C197.399 173.078 199.284 170.375 199.856 167.313L102.053 0.235043C101.333 0.0931463 100.613 0.019043 99.8717 0.019043C99.5752 0.019043 99.2788 0.0338447 98.9823 0.0613769" fill="white"/>
</mask>
<g mask="url(#mask2_15_90)">
<path d="M5.64606 0.019043V227.541H199.818V0.019043H5.64606Z" fill="url(#paint2_linear_15_90)"/>
</g>
<defs>
<linearGradient id="paint0_linear_15_90" x1="164.379" y1="-17.6174" x2="35.4743" y2="245.348" gradientUnits="userSpaceOnUse">
<stop offset="0.3" stop-color="#3E863D"/>
<stop offset="0.5" stop-color="#55934F"/>
<stop offset="0.8" stop-color="#5AAD45"/>
</linearGradient>
<linearGradient id="paint1_linear_15_90" x1="-16.666" y1="202.162" x2="218.129" y2="28.6761" gradientUnits="userSpaceOnUse">
<stop offset="0.57" stop-color="#3E863D"/>
<stop offset="0.72" stop-color="#619857"/>
<stop offset="1" stop-color="#76AC64"/>
</linearGradient>
<linearGradient id="paint2_linear_15_90" x1="5.71156" y1="113.786" x2="199.854" y2="113.786" gradientUnits="userSpaceOnUse">
<stop offset="0.16" stop-color="#6BBF47"/>
<stop offset="0.38" stop-color="#79B461"/>
<stop offset="0.47" stop-color="#75AC64"/>
<stop offset="0.7" stop-color="#659E5A"/>
<stop offset="0.9" stop-color="#3E863D"/>
</linearGradient>
</defs>
</svg>
