<svg width="200" height="187" viewBox="0 0 200 187" fill="none" xmlns="http://www.w3.org/2000/svg">
<path d="M120.93 102.326L106.977 0H105.935C55.1964 0.148129 14.1016 41.2429 13.9535 91.9813V93.0233L120.93 102.326Z" fill="#ED6C47"/>
<path d="M108.019 0H106.977V93.0233L153.488 111.628L200 93.0233V91.9814C199.852 41.243 158.757 0.148129 108.019 0Z" fill="#FF8F6B"/>
<path d="M200 93.0232V94.0464C199.854 144.796 158.75 185.901 108 186.046H105.953C55.2037 185.901 14.0991 144.796 13.9535 94.0464V93.0232H200Z" fill="#D35230"/>
<path opacity="0.1" d="M111.628 45.7209V144.977C111.605 148.426 109.515 151.524 106.326 152.837C105.31 153.267 104.219 153.488 103.116 153.488H35.907C34.6046 152 33.3489 150.419 32.186 148.837C20.3362 133.03 13.9381 113.802 13.9535 94.0464V91.9999C13.9263 74.1805 19.1341 56.7456 28.9302 41.8604C29.9535 40.279 31.0232 38.6976 32.186 37.2092H103.116C107.802 37.2448 111.592 41.0348 111.628 45.7209Z" fill="black"/>
<path opacity="0.2" d="M106.977 50.3722V149.628C106.977 150.731 106.755 151.822 106.326 152.837C105.012 156.026 101.914 158.116 98.465 158.14H40.1395C38.6678 156.646 37.2559 155.094 35.9068 153.488C34.6045 152 33.3488 150.419 32.1859 148.837C20.3361 133.03 13.938 113.802 13.9534 94.0465V92C13.9262 74.1806 19.134 56.7457 28.9301 41.8605H98.465C103.151 41.8959 106.941 45.686 106.977 50.3722Z" fill="black"/>
<path opacity="0.2" d="M106.977 50.3722V140.326C106.941 145.012 103.151 148.802 98.4652 148.837H32.186C20.3362 133.03 13.9381 113.803 13.9535 94.0466V92.0001C13.9263 74.1807 19.1341 56.7458 28.9302 41.8606H98.4651C103.151 41.8959 106.941 45.686 106.977 50.3722Z" fill="black"/>
<path opacity="0.2" d="M102.326 50.3722V140.326C102.29 145.012 98.5001 148.802 93.814 148.837H32.186C20.3362 133.03 13.9381 113.803 13.9535 94.0466V92.0001C13.9263 74.1807 19.1341 56.7458 28.9302 41.8606H93.8139C98.5001 41.8959 102.29 45.686 102.326 50.3722Z" fill="black"/>
<path d="M8.52554 41.8605H93.7999C98.5085 41.8605 102.325 45.6776 102.325 50.386V135.66C102.325 140.369 98.5084 144.186 93.7999 144.186H8.52554C3.81708 144.186 0 140.369 0 135.661V50.386C0 45.6776 3.81708 41.8605 8.52554 41.8605Z" fill="url(#paint0_linear_13_55)"/>
<path d="M52.0931 64.6C57.6442 64.2254 63.1475 65.8378 67.6187 69.1488C69.4592 70.792 70.9022 72.832 71.8385 75.1148C72.7748 77.3975 73.1799 79.8632 73.0233 82.3255C73.0843 85.7937 72.1601 89.208 70.3583 92.172C68.534 95.085 65.9058 97.4079 62.7908 98.8604C59.2295 100.517 55.336 101.335 51.4093 101.251H40.6233V121.298H29.5768V64.6H52.0931ZM40.6141 92.5907H50.1211C53.1351 92.812 56.1255 91.92 58.5258 90.0837C59.5065 89.143 60.2692 87.9987 60.7601 86.7315C61.2511 85.4643 61.4585 84.1048 61.3676 82.7489C61.3676 76.5008 57.7366 73.3767 50.4746 73.3767H40.6142V92.5907H40.6141Z" fill="white"/>
<defs>
<linearGradient id="paint0_linear_13_55" x1="17.776" y1="35.1987" x2="84.5496" y2="150.848" gradientUnits="userSpaceOnUse">
<stop stop-color="#CA4C28"/>
<stop offset="0.5" stop-color="#C5401E"/>
<stop offset="1" stop-color="#B62F14"/>
</linearGradient>
</defs>
</svg>
