<svg width="200" height="195" viewBox="0 0 200 195" fill="none" xmlns="http://www.w3.org/2000/svg">
<path d="M191.667 8.33331H8.33337V186.667H191.667V8.33331Z" fill="#2A0034"/>
<path d="M0 0V195H200V0H0ZM8.33333 8.33333H191.667V186.667H8.33333V8.33333ZM51.9167 45.6667C51.9167 45.0833 52.0833 44.6667 52.75 44.6667C58.0833 44.4167 65.9167 44.25 74.1667 44.25C97.25 44.25 107.333 56.9167 107.333 73.1667C107.333 94.3333 92 103.417 73.1667 103.417C70 103.417 68.9167 103.25 66.6667 103.25V135.25C66.6667 135.917 66.4167 136.25 65.6667 136.25H52.8333C52.1667 136.25 51.8333 136 51.8333 135.25C51.8333 135.25 51.8333 45.6667 51.9167 45.6667ZM66.6667 89.9167C68.5833 90.0833 70.0833 90.0833 73.4167 90.0833C83.1667 90.0833 92.3333 86.6667 92.3333 73.4167C92.3333 62.8333 85.8333 57.5 74.6667 57.5C71.3333 57.5 68.1667 57.6667 66.6667 57.75V89.9167ZM120 82.3333C120 81.3333 120 78.9167 119.583 74.25C119.583 73.5833 119.667 73.4167 120.25 73.1667C125.333 71.0833 137.25 67.4167 150.75 67.4167C151.417 67.4167 151.75 67.5833 151.75 68.25V80.3333C151.75 81 151.5 81.1667 150.833 81.1667C145.583 80.9167 138 81.5833 135.083 82.8333V135.333C135.083 136 134.833 136.333 134.083 136.333H121C120.333 136.333 120 136.083 120 135.333V82.3333Z" fill="#EA77FF"/>
</svg>
