<svg width="220" height="215" viewBox="0 0 220 215" fill="none" xmlns="http://www.w3.org/2000/svg">
<path d="M181.042 214.5H38.9583C17.4167 214.5 0 197.083 0 175.542V38.9583C0 17.4167 17.4167 0 38.9583 0H181.042C202.583 0 220 17.4167 220 38.9583V175.542C220 197.083 202.583 214.5 181.042 214.5Z" fill="#26C9FF"/>
<path d="M177.558 205.333H42.4417C24.1083 205.333 9.16666 190.392 9.16666 172.058V42.4417C9.16666 24.1084 24.1083 9.16669 42.4417 9.16669H177.467C195.892 9.16669 210.742 24.1084 210.742 42.4417V171.967C210.833 190.392 195.892 205.333 177.558 205.333Z" fill="#061E26"/>
<path fill-rule="evenodd" clip-rule="evenodd" d="M54.0833 53.7167C54.0833 53.1667 54.2667 52.7083 55 52.7083C60.775 52.4333 69.025 52.25 77.9167 52.25C102.667 52.25 113.483 65.8167 113.483 83.2333C113.483 105.967 96.8 115.683 76.6333 115.683C73.2417 115.683 72.05 115.5 69.6667 115.5V150.333C69.6667 151.067 69.3917 151.342 68.6583 151.342H55.0917C54.3583 151.342 54.0833 151.067 54.0833 150.333V53.7167ZM69.6667 101.2C71.6833 101.383 73.3333 101.383 76.9083 101.383C87.3583 101.383 97.35 97.7167 97.35 83.5083C97.35 72.1417 90.2 66.3667 78.1917 66.3667C74.6167 66.3667 71.225 66.55 69.6667 66.6417V101.2ZM149.6 90.5667C142.542 90.5667 140.158 94.1417 140.158 97.075C140.158 100.283 141.808 102.575 151.25 107.433C165.275 114.217 169.675 120.725 169.675 130.35C169.675 144.65 158.767 152.35 144.008 152.35C136.217 152.35 129.25 150.7 125.4 148.5C124.85 148.225 124.667 147.767 124.667 147.033V133.833C124.667 132.917 125.125 132.642 125.675 133.1C131.267 136.767 138.142 138.417 144.008 138.417C151.067 138.417 154 135.483 154 131.45C154 128.242 151.983 125.4 142.908 120.633C130.167 114.583 124.942 108.35 124.942 98.0833C124.942 86.5333 133.925 77 149.6 77C157.3 77 162.983 78.1917 165.917 79.475C166.65 79.9333 166.833 80.6667 166.833 81.2167V93.5C166.833 94.2333 166.375 94.6917 165.55 94.4167C161.517 92.0333 155.375 90.5667 149.6 90.5667Z" fill="#D9F5FF"/>
</svg>
