<svg width="200" height="199" viewBox="0 0 200 199" fill="none" xmlns="http://www.w3.org/2000/svg">
<path d="M99.2795 0C48.507 0 51.6771 22.018 51.6771 22.018L51.7335 44.8293H100.185V51.6779H32.4894C32.4894 51.6779 0 47.9932 0 99.2224C0 150.453 28.3575 148.636 28.3575 148.636H45.2812V124.863C45.2812 124.863 44.3688 96.5057 73.1861 96.5057H121.241C121.241 96.5057 148.24 96.9419 148.24 70.4122V26.5469C148.24 26.5469 152.34 0 99.2795 0ZM72.5635 15.3402C73.7084 15.3391 74.8423 15.5639 75.9003 16.0016C76.9583 16.4392 77.9196 17.0812 78.7292 17.8908C79.5388 18.7004 80.1808 19.6617 80.6184 20.7197C81.0561 21.7777 81.2809 22.9116 81.2798 24.0565C81.2809 25.2015 81.0561 26.3354 80.6184 27.3933C80.1808 28.4513 79.5388 29.4126 78.7292 30.2222C77.9196 31.0318 76.9583 31.6738 75.9003 32.1115C74.8423 32.5492 73.7084 32.7739 72.5635 32.7729C71.4185 32.7739 70.2846 32.5492 69.2267 32.1115C68.1687 31.6738 67.2074 31.0318 66.3978 30.2222C65.5882 29.4126 64.9462 28.4513 64.5085 27.3933C64.0708 26.3354 63.8461 25.2015 63.8471 24.0565C63.8461 22.9116 64.0708 21.7777 64.5085 20.7197C64.9462 19.6617 65.5882 18.7004 66.3978 17.8908C67.2074 17.0812 68.1687 16.4392 69.2267 16.0016C70.2846 15.5639 71.4185 15.3391 72.5635 15.3402Z" fill="url(#paint0_linear_11_13)"/>
<path d="M100.721 198.96C151.494 198.96 148.324 176.942 148.324 176.942L148.267 154.132H99.8152V147.283H167.511C167.511 147.283 200 150.968 200 99.7369C200 48.507 171.643 50.3239 171.643 50.3239H154.719V74.0961C154.719 74.0961 155.631 102.454 126.814 102.454H78.7589C78.7589 102.454 51.7601 102.017 51.7601 128.548V172.414C51.7601 172.414 47.6604 198.96 100.72 198.96H100.721ZM127.437 183.621C126.292 183.622 125.159 183.398 124.101 182.96C123.043 182.522 122.081 181.88 121.272 181.071C120.462 180.261 119.82 179.3 119.382 178.242C118.945 177.184 118.72 176.05 118.721 174.905C118.72 173.76 118.945 172.626 119.382 171.568C119.82 170.51 120.462 169.549 121.271 168.739C122.081 167.929 123.042 167.287 124.1 166.849C125.158 166.412 126.292 166.187 127.437 166.188C128.582 166.187 129.716 166.412 130.774 166.849C131.832 167.287 132.793 167.929 133.603 168.739C134.413 169.548 135.055 170.51 135.492 171.568C135.93 172.625 136.155 173.759 136.154 174.904C136.155 176.049 135.93 177.183 135.492 178.241C135.055 179.299 134.413 180.26 133.603 181.07C132.793 181.88 131.832 182.522 130.774 182.959C129.716 183.397 128.582 183.622 127.437 183.621Z" fill="url(#paint1_linear_11_13)"/>
<defs>
<linearGradient id="paint0_linear_11_13" x1="19.2199" y1="17.8953" x2="118.334" y2="116.02" gradientUnits="userSpaceOnUse">
<stop stop-color="#387EB8"/>
<stop offset="1" stop-color="#366994"/>
</linearGradient>
<linearGradient id="paint1_linear_11_13" x1="80.056" y1="80.9054" x2="186.493" y2="181.524" gradientUnits="userSpaceOnUse">
<stop stop-color="#FFE052"/>
<stop offset="1" stop-color="#FFC331"/>
</linearGradient>
</defs>
</svg>
