<svg width="200" height="203" viewBox="0 0 200 203" fill="none" xmlns="http://www.w3.org/2000/svg">
<path d="M0 129.81L99.9999 202.365L150 188.012L50 115.457V64.8262L0 79.1795V129.81Z" fill="#00A7FF"/>
<path d="M150 86.9082L50 14.353V64.9839L150 137.539L200 123.186V72.7126L150 86.9082Z" fill="#00A7FF"/>
<path d="M50 14.3533L150 86.9084L200 72.5551L100 0L50 14.3533Z" fill="#0BFEFD"/>
<path d="M150 137.381L50 64.8262V115.457L150 188.012V137.381Z" fill="#0BFEFD"/>
<path d="M0 129.81L50 115.457V64.8262L0 79.1795V129.81Z" fill="#00CEFF"/>
<path d="M150 86.9082V137.539L200 123.186V72.7126L150 86.9082Z" fill="#00CEFF"/>
</svg>
