<svg width="200" height="226" viewBox="0 0 200 226" fill="none" xmlns="http://www.w3.org/2000/svg">
<path d="M200 157.915V52.6382L108.706 0V40.4186L144.471 61.0979C145.882 62.0379 145.882 63.9178 144.471 64.3878L102.118 88.827C100.706 89.767 99.2941 89.297 98.3529 88.827L56 64.3878C54.5882 63.9178 54.5882 61.5679 56 61.0979L91.7647 40.4186V0L0 52.6382V157.915L34.8235 137.705V96.3468C34.8235 94.9368 36.7059 93.9968 37.6471 94.4668L80 118.906C81.4118 119.846 81.8824 120.786 81.8824 122.196V171.074C81.8824 172.484 80 173.424 79.0588 172.954L43.2941 152.275L8.47059 172.484L99.7647 225.592L191.059 172.954L156.235 152.745L120.471 173.424C119.059 174.364 117.647 173.424 117.647 171.544V122.666C117.647 121.256 118.588 119.846 119.529 119.376L161.882 94.9368C163.294 93.9968 164.706 94.9368 164.706 96.8167V138.175L200 157.915Z" fill="#4C4C4C"/>
<path d="M99.5261 225.592L191.469 173.089L156.398 152.931L120.379 173.558C118.957 174.495 117.536 173.558 117.536 171.682V122.929C117.536 121.523 118.483 120.116 119.431 119.648L162.085 95.271C163.507 94.3334 164.929 95.271 164.929 97.1461V138.399L200 158.557V53.0806L99.5261 110.741V225.592Z" fill="black"/>
<path d="M108.962 0V40.5849L144.811 61.3492C146.226 62.293 146.226 64.1807 144.811 64.6526L102.358 89.1923C100.943 90.1361 99.5283 89.6642 98.5849 89.1923L56.1321 64.6526C54.717 64.1807 54.717 61.8211 56.1321 61.3492L91.9811 40.5849V0L0 52.8547L100 110.9L200 52.8547L108.962 0Z" fill="#808080"/>
<path d="M79.7188 173.558L43.8689 152.931L8.96246 173.089L100.474 225.592V110.741L0 53.0806V158.088L34.9064 137.93V96.6773C34.9064 95.271 36.7933 94.3334 37.7367 94.8022L80.1905 119.179C81.6056 120.116 82.0773 121.054 82.0773 122.46V171.214C82.549 173.089 81.1339 174.495 79.7188 173.558Z" fill="#4C4C4C"/>
</svg>
