<svg width="200" height="198" viewBox="0 0 200 198" fill="none" xmlns="http://www.w3.org/2000/svg">
<path d="M1.90283 68.997C1.90283 68.997 -2.96842 65.4856 2.87709 60.797L16.4963 48.6189C16.4963 48.6189 20.3933 44.5189 24.5136 48.0912L150.192 143.243V188.87C150.192 188.87 150.131 196.035 140.937 195.244L1.90283 68.997Z" fill="#2489CA"/>
<path d="M34.2966 98.4072L1.90276 127.858C1.90276 127.858 -1.42593 130.334 1.90276 134.759L16.9428 148.439C16.9428 148.439 20.515 152.275 25.7922 147.911L60.1346 121.87L34.2966 98.4072Z" fill="#1070B3"/>
<path d="M91.1687 98.6508L150.578 53.2872L150.192 7.90334C150.192 7.90334 147.655 -2.00155 139.191 3.15387L60.1348 75.1064L91.1687 98.6508Z" fill="#0877B9"/>
<path d="M140.937 195.305C144.387 198.836 148.568 197.679 148.568 197.679L194.865 174.866C200.792 170.827 199.96 165.813 199.96 165.813V29.5804C199.96 23.5928 193.83 21.5225 193.83 21.5225L153.703 2.17957C144.935 -3.23971 139.191 3.15382 139.191 3.15382C139.191 3.15382 146.579 -2.16397 150.192 7.90329V188.038C150.192 189.276 149.928 190.494 149.4 191.59C148.345 193.721 146.051 195.711 140.551 194.878L140.937 195.305Z" fill="#3C99D4"/>
</svg>
