<svg width="200" height="178" viewBox="0 0 200 178" fill="none" xmlns="http://www.w3.org/2000/svg">
<path d="M191.528 0H55.7166C54.604 0 53.5022 0.219144 52.4743 0.644924C51.4464 1.0707 50.5124 1.69478 49.7257 2.48152C48.9389 3.26826 48.3148 4.20225 47.8891 5.23018C47.4633 6.2581 47.2441 7.35983 47.2441 8.47244V44.0945L125.984 58.2677L200 44.0945V8.47244C200 7.35983 199.781 6.2581 199.355 5.23018C198.929 4.20225 198.305 3.26826 197.519 2.48152C196.732 1.69478 195.798 1.0707 194.77 0.644924C193.742 0.219144 192.64 0 191.528 0Z" fill="#41A5EE"/>
<path d="M200 44.0945H47.2441V88.189L124.409 103.937L200 88.189V44.0945Z" fill="#2B7CD3"/>
<path d="M47.2441 88.189V132.283L127.559 148.031L200 132.283V88.189H47.2441Z" fill="#185ABD"/>
<path d="M55.7182 177.953H191.526C193.773 177.953 195.929 177.06 197.518 175.471C199.107 173.882 200 171.726 200 169.479V132.283H47.2441V169.479C47.2441 171.726 48.1369 173.882 49.7261 175.471C51.3153 177.06 53.4707 177.953 55.7182 177.953Z" fill="#103F91"/>
<path opacity="0.05" d="M47.2441 36.2205V148.031H98.6142C100.861 148.031 103.016 147.139 104.605 145.55C106.194 143.961 107.087 141.806 107.087 139.559V45.6693C107.087 40.9905 103.293 36.2205 98.6142 36.2205H47.2441Z" fill="black"/>
<path opacity="0.075" d="M47.2441 36.6141V146.457H97.5827C98.6875 146.454 99.7807 146.231 100.799 145.803C101.817 145.374 102.74 144.747 103.514 143.959C104.288 143.171 104.898 142.237 105.309 141.212C105.719 140.186 105.922 139.089 105.906 137.984V45.8267C105.906 41.148 102.112 36.622 97.4331 36.622L47.2441 36.6141Z" fill="black"/>
<path opacity="0.1" d="M47.2441 37.0078V144.882H96.5512C97.6482 144.876 98.733 144.65 99.7415 144.219C100.75 143.787 101.662 143.158 102.424 142.368C103.185 141.579 103.781 140.645 104.176 139.621C104.572 138.598 104.758 137.506 104.724 136.409V45.9684C104.742 43.6701 103.87 41.4541 102.291 39.784C100.711 38.1139 98.5477 37.1191 96.252 37.0078H47.2441Z" fill="black"/>
<path opacity="0.125" d="M47.2441 37.4016V143.307H95.5197C96.609 143.298 97.6853 143.069 98.6841 142.634C99.683 142.2 100.584 141.568 101.333 140.777C102.082 139.986 102.664 139.052 103.044 138.031C103.423 137.01 103.593 135.923 103.543 134.835V46.1181C103.552 43.8457 102.67 41.6602 101.086 40.0306C99.5023 38.4011 97.3427 37.4572 95.0709 37.4016H47.2441Z" fill="black"/>
<path opacity="0.15" d="M47.2441 37.7953V141.732H94.4882C95.5699 141.72 96.6377 141.487 97.6267 141.049C98.6158 140.611 99.5056 139.977 100.242 139.184C100.978 138.392 101.546 137.458 101.911 136.44C102.275 135.421 102.429 134.34 102.362 133.26V46.2677C102.362 45.1551 102.143 44.0534 101.717 43.0255C101.292 41.9975 100.667 41.0635 99.8807 40.2768C99.094 39.4901 98.16 38.866 97.1321 38.4402C96.1042 38.0144 95.0024 37.7953 93.8898 37.7953H47.2441Z" fill="black"/>
<path d="M93.8898 37.7953H8.47244C3.79324 37.7953 0 41.5885 0 46.2677V131.685C0 136.364 3.79324 140.157 8.47244 140.157H93.8898C98.569 140.157 102.362 136.364 102.362 131.685V46.2677C102.362 41.5885 98.569 37.7953 93.8898 37.7953Z" fill="url(#paint0_linear_13_71)"/>
<path d="M34.7717 102.325C34.9386 103.632 35.0478 104.771 35.0993 105.743H35.2914C35.367 104.822 35.514 103.708 35.7323 102.402C35.9507 101.096 36.1607 99.9933 36.3623 99.0947L45.2741 60.6443H56.7969L66.0174 98.5198C66.5573 100.874 66.9418 103.26 67.1686 105.665H67.326C67.4978 103.342 67.8186 101.032 68.2867 98.7498L75.6615 60.6395H86.1481L73.2347 115.723H60.989L52.1922 79.2395C51.9371 78.1897 51.6494 76.8196 51.3292 75.1293C51.009 73.439 50.81 72.2096 50.7323 71.4411H50.5749C50.4699 72.3377 50.2714 73.6695 49.9796 75.4364C49.6877 77.2033 49.451 78.5093 49.2693 79.3545L41.0095 115.732H28.5686L15.5465 60.6474H26.2252L34.2567 99.175C34.4342 99.9687 34.6058 101.019 34.7717 102.325Z" fill="white"/>
<defs>
<linearGradient id="paint0_linear_13_71" x1="17.7732" y1="31.1134" x2="84.589" y2="146.839" gradientUnits="userSpaceOnUse">
<stop stop-color="#2368C4"/>
<stop offset="0.5" stop-color="#1A5DBE"/>
<stop offset="1" stop-color="#1146AC"/>
</linearGradient>
</defs>
</svg>
