<svg width="200" height="195" viewBox="0 0 200 195" fill="none" xmlns="http://www.w3.org/2000/svg">
<path d="M0 0V195H200V0H0ZM8.33333 8.33333H191.667V186.667H8.33333V8.33333Z" fill="#FF2BC2"/>
<path d="M8.33331 8.33337H191.667V186.667H8.33331V8.33337Z" fill="#2E001E"/>
<path d="M145.25 81.9167C144 81.3333 142.417 81.0833 140.417 81.0833C129.917 81.0833 122.917 89.1667 122.917 102.583C122.917 117.917 130.083 124.083 139.417 124.083C141.417 124.083 143.583 123.833 145.167 123.167V81.9167H145.25ZM107.917 103.25C107.917 83.8333 120.417 68.6667 140.917 68.6667C142.666 68.6667 143.583 68.6667 145.25 68.8333V47.1667C145.25 46.6667 145.667 46.3333 146.083 46.3333H159.5C160.167 46.3333 160.334 46.5833 160.334 47V123.167C160.334 125.417 160.334 128.25 160.75 131.333C160.75 131.917 160.75 132 160.25 132.25C153.25 135.583 145.917 137.083 138.917 137.083C120.833 137.083 107.917 125.917 107.917 103.25ZM79.5 89.75L102.833 135C103.25 135.667 103 136.333 102.333 136.333H87.8333C86.9167 136.333 86.5 136.083 86.0833 135.25C80.75 124.25 75.3333 112.833 69.75 101H69.5833C64.5833 112.167 59.0833 124.333 53.75 135.334C53.3333 136 52.9167 136.25 52.25 136.25H38.4167C37.5833 136.25 37.5 135.584 37.9167 135.084L60.75 91.167L38.6667 47.5C38.1667 46.8333 38.6667 46.25 39.25 46.25H53.5833C54.4167 46.25 54.8333 46.4167 55.0833 47.1667C60.3333 58.25 65.6667 69.1667 70.6667 80.3333H70.8333C75.6667 69.3333 81 58.25 86.0833 47.3333C86.5 46.6667 86.75 46.25 87.5833 46.25H101C101.667 46.25 101.917 46.75 101.5 47.5L79.5 89.75Z" fill="#FF2BC2"/>
</svg>
